<?xml version="1.0" encoding="iso-8859-1"?>
<!-- Uploaded to: SVG Repo, www.svgrepo.com, Generator: SVG Repo Mixer Tools -->
<svg fill="currentColor" version="1.1" id="Layer_1" xmlns="http://www.w3.org/2000/svg" xmlns:xlink="http://www.w3.org/1999/xlink" 
	 viewBox="0 0 512 512" xml:space="preserve">
<g>
	<g>
		<g>
			<path d="M459.509,226.154c-4.693,0.358-8.218,4.454-7.859,9.156c0.41,5.402,0.614,10.931,0.614,16.427
				c0,4.71,3.823,8.533,8.533,8.533c4.719,0,8.533-3.823,8.533-8.533c0-5.931-0.222-11.887-0.666-17.715
				C468.315,229.32,464.211,225.787,459.509,226.154z"/>
			<path d="M431.921,162.81c1.502,2.987,4.506,4.702,7.637,4.702c1.28,0,2.594-0.29,3.814-0.905
				c4.215-2.116,5.914-7.245,3.797-11.46c-3.072-6.11-6.511-12.134-10.214-17.903c-2.543-3.968-7.834-5.12-11.785-2.569
				c-3.968,2.543-5.12,7.825-2.568,11.785C425.981,151.734,429.113,157.229,431.921,162.81z"/>
			<path d="M442.633,188.968c1.911,5.914,3.567,12.049,4.924,18.227c0.87,3.994,4.403,6.716,8.329,6.716
				c0.606,0,1.212-0.06,1.826-0.196c4.608-1.007,7.518-5.555,6.519-10.163c-1.476-6.724-3.277-13.397-5.367-19.84
				c-1.442-4.48-6.246-6.946-10.743-5.487C443.64,179.675,441.183,184.488,442.633,188.968z"/>
			<path d="M353.479,84.36c5.615,2.825,11.11,5.965,16.341,9.318c1.434,0.922,3.029,1.357,4.608,1.357
				c2.807,0,5.555-1.382,7.185-3.917c2.543-3.968,1.399-9.25-2.568-11.793c-5.726-3.678-11.75-7.117-17.894-10.206
				c-4.224-2.125-9.344-0.427-11.452,3.78C347.574,77.115,349.272,82.243,353.479,84.36z"/>
			<path d="M392.243,110.769c4.625,4.147,9.097,8.619,13.278,13.286c1.69,1.877,4.019,2.833,6.357,2.833
				c2.031,0,4.062-0.717,5.7-2.176c3.507-3.149,3.797-8.55,0.649-12.058c-4.599-5.129-9.506-10.035-14.592-14.592
				c-3.516-3.157-8.909-2.842-12.049,0.657C388.437,102.236,388.736,107.629,392.243,110.769z"/>
			<path d="M309.121,68.727c6.187,1.348,12.322,3.012,18.227,4.924c0.879,0.282,1.758,0.418,2.628,0.418
				c3.601,0,6.955-2.304,8.124-5.905c1.451-4.489-1.007-9.301-5.495-10.752c-6.434-2.082-13.107-3.891-19.831-5.359
				c-4.625-1.007-9.156,1.911-10.163,6.511C301.603,63.171,304.513,67.72,309.121,68.727z"/>
			<path d="M281.613,64.643c4.42,0,8.166-3.405,8.499-7.885c0.358-4.702-3.166-8.806-7.859-9.156
				c-5.837-0.444-11.793-0.666-17.715-0.666c-4.719,0-8.533,3.823-8.533,8.533c0,4.71,3.814,8.533,8.533,8.533
				c5.495,0,11.017,0.205,16.418,0.614C281.178,64.635,281.399,64.643,281.613,64.643z"/>
			<path d="M52.488,294.381c4.702-0.358,8.218-4.454,7.859-9.156c-0.401-5.402-0.614-10.931-0.614-16.427
				c0-4.71-3.823-8.533-8.533-8.533s-8.533,3.823-8.533,8.533c0,5.931,0.222,11.887,0.666,17.724
				c0.341,4.48,4.079,7.885,8.499,7.885C52.052,294.407,52.266,294.398,52.488,294.381z"/>
			<path d="M80.079,357.727c-2.125-4.207-7.253-5.905-11.452-3.797c-4.215,2.116-5.914,7.245-3.797,11.46
				c3.072,6.11,6.511,12.134,10.214,17.903c1.63,2.543,4.378,3.925,7.185,3.925c1.579,0,3.174-0.435,4.599-1.357
				c3.968-2.543,5.12-7.825,2.569-11.785C86.019,368.803,82.887,363.308,80.079,357.727z"/>
			<path d="M69.367,331.569c-1.911-5.914-3.567-12.049-4.924-18.227c-1.007-4.608-5.555-7.509-10.155-6.519
				c-4.608,1.007-7.518,5.555-6.519,10.163c1.476,6.724,3.277,13.397,5.367,19.84c1.161,3.61,4.514,5.914,8.115,5.914
				c0.87,0,1.749-0.145,2.628-0.427C68.36,340.861,70.817,336.049,69.367,331.569z"/>
			<path d="M202.879,451.81c-6.187-1.348-12.322-3.012-18.227-4.924c-4.48-1.442-9.301,1.015-10.752,5.487
				c-1.451,4.489,1.007,9.301,5.495,10.752c6.434,2.082,13.107,3.891,19.831,5.359c0.623,0.137,1.229,0.196,1.835,0.196
				c3.925,0,7.458-2.722,8.329-6.707C210.397,457.365,207.487,452.817,202.879,451.81z"/>
			<path d="M158.521,436.177c-5.615-2.825-11.11-5.965-16.341-9.318c-3.968-2.552-9.25-1.399-11.793,2.56
				c-2.543,3.968-1.399,9.25,2.569,11.793c5.726,3.678,11.75,7.117,17.894,10.206c1.229,0.623,2.534,0.913,3.823,0.913
				c3.132,0,6.135-1.715,7.629-4.693C164.426,443.422,162.728,438.293,158.521,436.177z"/>
			<path d="M119.757,409.767c-4.625-4.147-9.097-8.619-13.278-13.286c-3.157-3.499-8.542-3.806-12.058-0.657
				c-3.507,3.149-3.797,8.55-0.648,12.058c4.599,5.128,9.506,10.035,14.592,14.592c1.63,1.459,3.669,2.176,5.692,2.176
				c2.347,0,4.676-0.956,6.357-2.833C123.563,418.301,123.264,412.908,119.757,409.767z"/>
			<path d="M247.467,456.535c-5.495,0-11.025-0.205-16.427-0.614c-4.779-0.41-8.798,3.157-9.156,7.859
				c-0.358,4.702,3.166,8.798,7.868,9.156c5.828,0.444,11.793,0.666,17.715,0.666c4.71,0,8.533-3.823,8.533-8.533
				S252.177,456.535,247.467,456.535z"/>
			<path d="M392.533,285.865c-12.228,0-119.467,0.964-119.467,34.133v51.2v51.2v51.2c0,33.178,107.238,34.133,119.467,34.133
				c12.228,0,119.467-0.956,119.467-34.133v-51.2v-51.2v-51.2C512,286.829,404.762,285.865,392.533,285.865z M392.533,302.932
				c59.008,0,95.65,10.487,101.88,17.033c-0.12,0.128-0.222,0.256-0.367,0.384c-0.205,0.196-0.435,0.393-0.7,0.597
				c-0.307,0.23-0.657,0.478-1.032,0.717c-0.324,0.205-0.657,0.418-1.033,0.631c-0.435,0.247-0.913,0.495-1.417,0.742
				c-0.435,0.222-0.888,0.444-1.382,0.666c-0.546,0.247-1.152,0.503-1.766,0.751c-0.555,0.23-1.118,0.461-1.724,0.691
				c-0.683,0.256-1.408,0.512-2.15,0.759c-0.657,0.23-1.323,0.461-2.031,0.691c-0.794,0.256-1.656,0.503-2.509,0.759
				c-0.777,0.23-1.545,0.461-2.372,0.683c-0.905,0.256-1.877,0.495-2.85,0.742c-0.879,0.23-1.758,0.452-2.688,0.674
				c-1.015,0.239-2.099,0.478-3.174,0.708c-0.998,0.222-1.988,0.444-3.029,0.649c-1.126,0.23-2.321,0.452-3.507,0.674
				c-1.101,0.205-2.185,0.41-3.328,0.614c-1.263,0.213-2.594,0.418-3.908,0.623c-1.178,0.188-2.33,0.375-3.55,0.555
				c-1.399,0.205-2.876,0.393-4.335,0.58c-1.246,0.162-2.458,0.333-3.746,0.486c-1.527,0.179-3.132,0.341-4.719,0.503
				c-1.323,0.137-2.62,0.29-3.985,0.418c-1.664,0.154-3.405,0.282-5.12,0.418c-1.391,0.111-2.739,0.239-4.173,0.333
				c-1.852,0.128-3.797,0.23-5.726,0.333c-1.382,0.077-2.714,0.171-4.13,0.239c-2.253,0.102-4.591,0.162-6.921,0.239
				c-1.178,0.034-2.313,0.085-3.507,0.119c-3.576,0.077-7.236,0.119-11,0.119c-3.763,0-7.424-0.043-10.999-0.119
				c-1.195-0.034-2.33-0.085-3.507-0.119c-2.33-0.077-4.668-0.137-6.921-0.239c-1.417-0.068-2.748-0.162-4.13-0.239
				c-1.929-0.102-3.874-0.205-5.726-0.333c-1.425-0.094-2.782-0.222-4.164-0.333c-1.724-0.137-3.465-0.265-5.129-0.418
				c-1.365-0.128-2.654-0.273-3.977-0.418c-1.587-0.162-3.2-0.324-4.727-0.503c-1.289-0.154-2.5-0.324-3.746-0.486
				c-1.459-0.188-2.935-0.375-4.335-0.58c-1.22-0.179-2.372-0.367-3.55-0.555c-1.314-0.205-2.645-0.41-3.908-0.623
				c-1.143-0.205-2.227-0.41-3.328-0.614c-1.186-0.222-2.381-0.444-3.507-0.674c-1.041-0.205-2.031-0.427-3.029-0.649
				c-1.075-0.23-2.159-0.469-3.174-0.708c-0.93-0.222-1.809-0.444-2.688-0.674c-0.973-0.247-1.946-0.486-2.85-0.742
				c-0.828-0.222-1.596-0.452-2.372-0.683c-0.853-0.256-1.715-0.503-2.509-0.759c-0.708-0.23-1.374-0.461-2.031-0.683
				c-0.742-0.256-1.476-0.512-2.15-0.768c-0.606-0.23-1.161-0.461-1.715-0.683c-0.623-0.256-1.229-0.512-1.783-0.759
				c-0.486-0.222-0.939-0.444-1.374-0.666c-0.503-0.247-0.981-0.495-1.417-0.742c-0.375-0.213-0.708-0.427-1.033-0.631
				c-0.375-0.239-0.725-0.486-1.032-0.717c-0.265-0.205-0.495-0.401-0.7-0.597c-0.145-0.128-0.247-0.256-0.367-0.384
				C296.883,313.419,333.525,302.932,392.533,302.932z M494.933,473.018c-4.395,6.477-41.481,17.647-102.4,17.647
				c-60.919,0-98.005-11.17-102.4-17.647v-31.232c0.051,0.026,0.111,0.043,0.162,0.06c1.664,0.768,3.456,1.485,5.299,2.176
				c0.452,0.171,0.913,0.341,1.382,0.512c1.929,0.683,3.908,1.34,5.982,1.954c0.077,0.026,0.154,0.043,0.23,0.06
				c2.022,0.597,4.113,1.143,6.238,1.664c0.546,0.136,1.092,0.264,1.647,0.401c2.21,0.512,4.437,1.015,6.724,1.468
				c0.06,0.008,0.12,0.017,0.188,0.034c2.253,0.444,4.548,0.853,6.852,1.237c0.572,0.094,1.143,0.188,1.724,0.282
				c2.347,0.384,4.702,0.742,7.066,1.058c0.026,0.008,0.051,0.008,0.077,0.017c2.364,0.316,4.719,0.606,7.074,0.87
				c0.572,0.068,1.143,0.137,1.715,0.196c2.33,0.256,4.642,0.503,6.929,0.708c0.043,0.009,0.077,0.009,0.119,0.017
				c2.27,0.205,4.497,0.392,6.682,0.555c0.555,0.043,1.101,0.085,1.647,0.128c2.167,0.162,4.301,0.307,6.349,0.435h0.017
				c2.082,0.119,4.062,0.23,5.999,0.324c0.478,0.017,0.939,0.043,1.408,0.06c1.86,0.085,3.669,0.162,5.35,0.222
				c0.009,0,0.026,0.009,0.043,0.009c1.707,0.06,3.268,0.102,4.753,0.145c0.367,0.009,0.725,0.017,1.075,0.026
				c2.876,0.068,5.248,0.102,7.04,0.119h0.657c0.785,0.009,1.476,0.009,1.971,0.009c0.495,0,1.186,0,1.971-0.009h0.657
				c1.792-0.017,4.164-0.051,7.04-0.119c0.35-0.009,0.708-0.017,1.075-0.026c1.485-0.043,3.046-0.085,4.753-0.145
				c0.017,0,0.034-0.009,0.043-0.009c1.681-0.06,3.49-0.137,5.35-0.222c0.469-0.017,0.93-0.043,1.408-0.06
				c1.929-0.094,3.908-0.205,5.99-0.324h0.026c2.048-0.128,4.181-0.273,6.349-0.435c0.546-0.043,1.092-0.085,1.647-0.128
				c2.185-0.162,4.412-0.35,6.682-0.555c0.043-0.009,0.077-0.009,0.119-0.017c2.287-0.205,4.599-0.452,6.929-0.708
				c0.572-0.06,1.143-0.128,1.715-0.196c2.355-0.265,4.71-0.555,7.074-0.87c0.026-0.009,0.051-0.009,0.077-0.017
				c2.364-0.316,4.719-0.674,7.066-1.058c0.58-0.094,1.152-0.188,1.724-0.282c2.304-0.384,4.599-0.794,6.852-1.237
				c0.068-0.017,0.128-0.026,0.188-0.034c2.287-0.452,4.514-0.956,6.724-1.468c0.555-0.137,1.101-0.265,1.647-0.401
				c2.125-0.521,4.207-1.067,6.229-1.656c0.077-0.026,0.162-0.043,0.247-0.068c2.065-0.614,4.045-1.271,5.973-1.954
				c0.469-0.171,0.922-0.341,1.382-0.512c1.843-0.691,3.635-1.408,5.299-2.176c0.051-0.017,0.111-0.034,0.162-0.06V473.018z
				 M494.933,370.61c-0.162,0.239-0.452,0.495-0.708,0.751c-0.171,0.171-0.273,0.333-0.478,0.503
				c-0.324,0.273-0.777,0.555-1.195,0.836c-0.265,0.171-0.452,0.341-0.751,0.521c-0.478,0.282-1.084,0.572-1.655,0.87
				c-0.358,0.179-0.649,0.358-1.041,0.546c-0.563,0.265-1.246,0.538-1.886,0.802c-0.512,0.222-0.973,0.435-1.536,0.657
				c-0.674,0.256-1.468,0.521-2.202,0.785c-0.649,0.23-1.237,0.452-1.929,0.683c-0.794,0.265-1.698,0.521-2.551,0.777
				c-0.768,0.23-1.476,0.469-2.296,0.7c-0.939,0.265-1.988,0.512-2.987,0.777c-0.845,0.222-1.638,0.444-2.534,0.657
				c-1.067,0.256-2.244,0.503-3.379,0.759c-0.947,0.205-1.843,0.427-2.833,0.631c-1.152,0.239-2.406,0.461-3.618,0.691
				c-1.084,0.205-2.116,0.418-3.243,0.614c-1.468,0.256-3.046,0.495-4.599,0.742c-0.981,0.154-1.903,0.324-2.918,0.469
				c-1.63,0.239-3.379,0.461-5.094,0.683c-1.033,0.137-2.005,0.282-3.063,0.41c-1.527,0.179-3.149,0.341-4.727,0.503
				c-1.357,0.145-2.662,0.307-4.07,0.444c-1.775,0.162-3.669,0.307-5.521,0.452c-1.288,0.102-2.526,0.222-3.857,0.316
				c-1.954,0.137-4.019,0.239-6.05,0.358c-1.331,0.068-2.594,0.162-3.951,0.222c-2.586,0.128-5.274,0.205-7.97,0.282
				c-0.879,0.026-1.707,0.068-2.603,0.085c-3.618,0.085-7.339,0.128-11.153,0.128c-3.814,0-7.535-0.043-11.153-0.128
				c-0.896-0.017-1.724-0.06-2.603-0.085c-2.697-0.077-5.385-0.154-7.97-0.282c-1.357-0.06-2.62-0.154-3.951-0.222
				c-2.031-0.119-4.096-0.222-6.05-0.358c-1.271-0.085-2.466-0.205-3.712-0.307c-1.903-0.145-3.84-0.29-5.666-0.461
				c-1.357-0.128-2.62-0.282-3.934-0.427c-1.63-0.171-3.294-0.333-4.864-0.521c-1.058-0.128-2.031-0.273-3.063-0.41
				c-1.715-0.222-3.465-0.444-5.094-0.683c-1.015-0.145-1.937-0.316-2.918-0.469c-1.553-0.247-3.132-0.486-4.599-0.742
				c-1.126-0.196-2.159-0.41-3.243-0.614c-1.212-0.23-2.466-0.452-3.618-0.691c-0.99-0.205-1.886-0.427-2.833-0.631
				c-1.135-0.256-2.313-0.503-3.379-0.759c-0.896-0.213-1.69-0.435-2.534-0.657c-0.998-0.265-2.048-0.512-2.987-0.777
				c-0.819-0.23-1.527-0.469-2.295-0.7c-0.853-0.256-1.758-0.512-2.551-0.777c-0.666-0.213-1.229-0.435-1.852-0.657
				c-0.768-0.273-1.587-0.546-2.278-0.811c-0.538-0.213-0.973-0.418-1.468-0.631c-0.666-0.273-1.374-0.555-1.954-0.828
				c-0.393-0.188-0.683-0.367-1.041-0.546c-0.572-0.299-1.178-0.589-1.655-0.87c-0.299-0.179-0.486-0.35-0.751-0.521
				c-0.418-0.282-0.87-0.563-1.195-0.836c-0.205-0.171-0.307-0.333-0.478-0.503c-0.256-0.256-0.546-0.512-0.708-0.751v-31.223
				c0.051,0.026,0.111,0.043,0.162,0.06c1.664,0.768,3.456,1.485,5.299,2.176c0.452,0.171,0.913,0.341,1.382,0.512
				c1.929,0.683,3.908,1.34,5.982,1.954c0.077,0.026,0.154,0.043,0.23,0.06c2.022,0.597,4.113,1.143,6.238,1.664
				c0.546,0.137,1.092,0.265,1.647,0.401c2.21,0.512,4.437,1.015,6.724,1.468c0.06,0.009,0.12,0.017,0.188,0.034
				c2.253,0.444,4.548,0.853,6.852,1.237c0.572,0.094,1.143,0.188,1.724,0.282c2.347,0.384,4.702,0.742,7.066,1.058
				c0.026,0.009,0.051,0.009,0.077,0.017c2.364,0.316,4.719,0.606,7.074,0.87c0.572,0.068,1.143,0.137,1.715,0.196
				c2.33,0.256,4.642,0.503,6.929,0.708c0.043,0.009,0.077,0.009,0.119,0.017c2.27,0.205,4.497,0.393,6.682,0.555
				c0.555,0.043,1.101,0.085,1.647,0.128c2.167,0.162,4.301,0.307,6.349,0.435h0.017c2.082,0.119,4.062,0.23,5.999,0.324
				c0.478,0.017,0.939,0.043,1.408,0.06c1.86,0.085,3.669,0.162,5.35,0.222c0.009,0,0.026,0.009,0.043,0.009
				c1.707,0.06,3.268,0.102,4.753,0.145c0.367,0.009,0.725,0.017,1.075,0.026c2.876,0.068,5.248,0.102,7.04,0.12h0.657
				c0.785,0.009,1.476,0.009,1.971,0.009c0.495,0,1.186,0,1.971-0.009h0.657c1.792-0.017,4.164-0.051,7.04-0.12
				c0.35-0.008,0.708-0.017,1.075-0.026c1.485-0.043,3.046-0.085,4.753-0.145c0.017,0,0.034-0.009,0.043-0.009
				c1.681-0.06,3.49-0.136,5.35-0.222c0.469-0.017,0.93-0.043,1.408-0.06c1.929-0.094,3.908-0.205,5.99-0.324h0.026
				c2.048-0.128,4.181-0.273,6.349-0.435c0.546-0.043,1.092-0.085,1.647-0.128c2.185-0.162,4.412-0.35,6.682-0.555
				c0.043-0.009,0.077-0.009,0.119-0.017c2.287-0.205,4.599-0.452,6.929-0.708c0.572-0.06,1.143-0.128,1.715-0.196
				c2.355-0.265,4.71-0.555,7.074-0.87c0.026-0.009,0.051-0.009,0.077-0.017c2.364-0.316,4.719-0.674,7.066-1.058
				c0.58-0.094,1.152-0.188,1.724-0.282c2.304-0.384,4.599-0.794,6.852-1.237c0.068-0.017,0.128-0.026,0.188-0.034
				c2.287-0.452,4.514-0.956,6.724-1.468c0.555-0.137,1.101-0.265,1.647-0.401c2.125-0.521,4.207-1.067,6.229-1.655
				c0.077-0.026,0.162-0.043,0.247-0.068c2.065-0.614,4.045-1.271,5.973-1.954c0.469-0.171,0.922-0.341,1.382-0.512
				c1.843-0.691,3.635-1.408,5.299-2.176c0.051-0.017,0.111-0.034,0.162-0.06V370.61z"/>
			<path d="M238.933,217.602V29.868c0-14.114-11.486-25.6-25.6-25.6H25.6C11.486,4.268,0,15.754,0,29.868v187.733
				c0,14.114,11.486,25.6,25.6,25.6h187.733C227.447,243.202,238.933,231.716,238.933,217.602z M42.667,46.935H128
				c4.71,0,8.533,3.823,8.533,8.533c0,4.71-3.823,8.533-8.533,8.533H42.667c-4.71,0-8.533-3.823-8.533-8.533
				C34.133,50.758,37.956,46.935,42.667,46.935z M34.133,157.868c0-4.71,3.823-8.533,8.533-8.533H76.8
				c4.71,0,8.533,3.823,8.533,8.533s-3.823,8.533-8.533,8.533H42.667C37.956,166.402,34.133,162.579,34.133,157.868z M128,200.535
				H59.733c-4.71,0-8.533-3.823-8.533-8.533s3.823-8.533,8.533-8.533H128c4.71,0,8.533,3.823,8.533,8.533
				S132.71,200.535,128,200.535z M128,132.268H42.667c-4.71,0-8.533-3.823-8.533-8.533c0-4.71,3.823-8.533,8.533-8.533H128
				c4.71,0,8.533,3.823,8.533,8.533C136.533,128.445,132.71,132.268,128,132.268z M162.133,98.135H68.267
				c-4.71,0-8.533-3.823-8.533-8.533s3.823-8.533,8.533-8.533h93.867c4.71,0,8.533,3.823,8.533,8.533S166.844,98.135,162.133,98.135
				z"/>
		</g>
	</g>
</g>
</svg>