<svg 
  viewBox="0 0 117 22" fill="currentColor" xmlns="http://www.w3.org/2000/svg" perserveAspectRatio="none"
>
  <path 
    fill-rule="evenodd" clip-rule="evenodd"
    d="M5.056 21H0.352V1.008H11.972V4.872H5.056V9.408H11.468V13.272H5.056V21ZM27.9585 15.204C27.9585 16.3427 27.6785 17.3787 27.1185 18.312C26.5585 19.2267 25.7185 19.9547 24.5985 20.496C23.4785 21.0187 22.0691 21.28 20.3705 21.28C19.5865 21.28 18.8585 21.2333 18.1865 21.14C17.5145 21.0467 16.8705 20.916 16.2545 20.748C15.6571 20.5613 15.0691 20.328 14.4905 20.048V15.708C15.4985 16.1747 16.5251 16.5667 17.5705 16.884C18.6345 17.2013 19.6518 17.36 20.6225 17.36C21.2385 17.36 21.7331 17.2853 22.1065 17.136C22.4985 16.968 22.7785 16.7533 22.9465 16.492C23.1331 16.212 23.2265 15.8947 23.2265 15.54C23.2265 15.1107 23.0771 14.7467 22.7785 14.448C22.4985 14.1307 22.0785 13.832 21.5185 13.552C20.9585 13.2533 20.2771 12.9173 19.4745 12.544C18.8771 12.2827 18.2891 11.984 17.7105 11.648C17.1505 11.2933 16.6371 10.892 16.1705 10.444C15.7225 9.97733 15.3585 9.42667 15.0785 8.792C14.8171 8.13867 14.6865 7.37333 14.6865 6.496C14.6865 5.24533 14.9758 4.2 15.5545 3.36C16.1518 2.50133 16.9825 1.848 18.0465 1.4C19.1105 0.951999 20.3611 0.727999 21.7985 0.727999C22.9745 0.727999 24.0571 0.858666 25.0465 1.12C26.0358 1.38133 26.9971 1.71733 27.9305 2.128L26.4185 5.852C25.5225 5.46 24.6825 5.16133 23.8985 4.956C23.1331 4.732 22.3865 4.62 21.6585 4.62C21.1545 4.62 20.7345 4.69467 20.3985 4.844C20.0625 4.97467 19.8105 5.17067 19.6425 5.432C19.4745 5.67467 19.3905 5.964 19.3905 6.3C19.3905 6.692 19.5211 7.03733 19.7825 7.336C20.0438 7.616 20.4545 7.90533 21.0145 8.204C21.5745 8.50267 22.3118 8.86667 23.2265 9.296C24.2158 9.744 25.0651 10.2293 25.7745 10.752C26.4838 11.2747 27.0251 11.8907 27.3985 12.6C27.7718 13.2907 27.9585 14.1587 27.9585 15.204ZM39.5638 21H34.8038V4.956H29.6238V1.008H44.7438V4.956H39.5638V21ZM73.1907 1.008L68.1787 21H62.6347L60.3107 11.34C60.2547 11.1347 60.1894 10.836 60.1147 10.444C60.0401 10.0333 59.9467 9.58533 59.8347 9.1C59.7414 8.596 59.6574 8.12 59.5827 7.672C59.5081 7.20533 59.4521 6.832 59.4147 6.552C59.3774 6.832 59.3121 7.20533 59.2187 7.672C59.1441 8.12 59.0601 8.596 58.9667 9.1C58.8734 9.58533 58.7801 10.0333 58.6867 10.444C58.6121 10.836 58.5467 11.1347 58.4907 11.34L56.1387 21H50.6227L45.5827 1.008H50.2307L52.6107 11.508C52.6854 11.788 52.7694 12.1613 52.8627 12.628C52.9561 13.076 53.0494 13.5613 53.1427 14.084C53.2361 14.588 53.3201 15.0827 53.3947 15.568C53.4881 16.0347 53.5534 16.436 53.5907 16.772C53.6467 16.324 53.7214 15.8107 53.8147 15.232C53.9267 14.6533 54.0387 14.0653 54.1507 13.468C54.2627 12.8707 54.3747 12.3107 54.4867 11.788C54.5987 11.2653 54.7014 10.8453 54.7947 10.528L57.1747 1.008H61.6267L64.0067 10.528C64.0627 10.8453 64.1467 11.2653 64.2587 11.788C64.3894 12.3107 64.5107 12.88 64.6227 13.496C64.7534 14.0933 64.8654 14.6813 64.9587 15.26C65.0521 15.8387 65.1267 16.3427 65.1827 16.772C65.2387 16.3053 65.3227 15.7453 65.4347 15.092C65.5654 14.42 65.6961 13.7573 65.8267 13.104C65.9574 12.432 66.0694 11.9093 66.1627 11.536L68.5427 1.008H73.1907ZM93.8613 10.976C93.8613 12.5253 93.6746 13.9347 93.3013 15.204C92.9279 16.4547 92.3493 17.5373 91.5653 18.452C90.7813 19.3667 89.7826 20.0667 88.5693 20.552C87.3559 21.0373 85.9186 21.28 84.2573 21.28C82.6146 21.28 81.1866 21.0373 79.9733 20.552C78.7599 20.048 77.7613 19.348 76.9773 18.452C76.1933 17.5373 75.6053 16.4453 75.2133 15.176C74.8399 13.9067 74.6533 12.4973 74.6533 10.948C74.6533 8.876 74.9893 7.07467 75.6613 5.544C76.3519 4.01333 77.4066 2.828 78.8253 1.988C80.2626 1.12933 82.0826 0.699999 84.2853 0.699999C86.5066 0.699999 88.3173 1.12933 89.7173 1.988C91.1359 2.828 92.1813 4.02267 92.8533 5.572C93.5253 7.10267 93.8613 8.904 93.8613 10.976ZM79.6653 10.976C79.6653 12.2827 79.8239 13.412 80.1413 14.364C80.4586 15.2973 80.9533 16.016 81.6253 16.52C82.3159 17.024 83.1933 17.276 84.2573 17.276C85.3586 17.276 86.2453 17.024 86.9173 16.52C87.5893 16.016 88.0746 15.2973 88.3733 14.364C88.6906 13.412 88.8493 12.2827 88.8493 10.976C88.8493 8.99733 88.4946 7.448 87.7853 6.328C87.0946 5.208 85.9279 4.648 84.2853 4.648C83.2026 4.648 82.3159 4.90933 81.6253 5.432C80.9533 5.936 80.4586 6.664 80.1413 7.616C79.8239 8.54933 79.6653 9.66933 79.6653 10.976ZM116.09 21H109.93L101.866 6.356H101.754C101.773 6.748 101.792 7.17733 101.81 7.644C101.848 8.092 101.876 8.55867 101.894 9.044C101.913 9.51067 101.932 9.97733 101.95 10.444C101.969 10.892 101.988 11.3307 102.006 11.76V21H97.7504V1.008H103.882L111.918 15.484H112.002C111.984 15.092 111.965 14.6813 111.946 14.252C111.928 13.804 111.909 13.356 111.89 12.908C111.872 12.4413 111.853 11.9933 111.834 11.564C111.834 11.116 111.825 10.6867 111.806 10.276V1.008H116.09V21Z" 
    fill="currentColor"
  />
</svg>